<svg xmlns="http://www.w3.org/2000/svg" width="26.974" height="17.454" viewBox="0 0 26.974 17.454"><defs><style>.a{fill:#2a5583;stroke:#2a5583;}</style></defs><g transform="translate(0.5 0.504)"><path class="a" d="M27.709,19.449a.433.433,0,0,0,0-.792L15.158,13.03a.433.433,0,0,0-.355,0L2.252,18.657a.433.433,0,0,0,0,.792l4.073,1.826v5.137c0,1.969,4.458,3.03,8.656,3.03s8.656-1.06,8.656-3.03V21.275l2.6-1.164V22.95a.866.866,0,0,0-.866.866v1.3a.433.433,0,0,0,.433.433h1.731a.433.433,0,0,0,.433-.433v-1.3a.866.866,0,0,0-.866-.866V19.721Zm-.61,5.233h-.866v-.866H27.1ZM14.98,13.9l11.5,5.15-11.5,5.15-11.5-5.15Zm7.79,12.508c0,.9-2.965,2.164-7.79,2.164s-7.79-1.259-7.79-2.164V21.651L14.8,25.066a.433.433,0,0,0,.355,0l7.613-3.415Z" transform="translate(-1.993 -12.992)"/></g></svg>