<svg xmlns="http://www.w3.org/2000/svg" width="34" height="34" viewBox="0 0 34 34"><defs><style>.a{opacity:0.446;}.b{fill:none;}.c{fill:#89898b;}</style></defs><g class="a"><path class="b" d="M0,0H34V34H0Z"/><path class="c" d="M5.226,22.944H22.391v2.327H5.226Zm8.582-2.327A9.568,9.568,0,0,1,4,11.309,9.568,9.568,0,0,1,13.809,2a9.568,9.568,0,0,1,9.809,9.309A9.568,9.568,0,0,1,13.809,20.617Zm0-2.327a7.176,7.176,0,0,0,7.356-6.981,7.176,7.176,0,0,0-7.356-6.981,7.176,7.176,0,0,0-7.356,6.981A7.176,7.176,0,0,0,13.809,18.29Z" transform="translate(3.191 5.133)"/></g></svg>