<svg xmlns="http://www.w3.org/2000/svg" width="960" height="1080" viewBox="0 0 960 1080"><defs><style>.a{fill:#f7f7fc;}.b{fill:#c19ec8;}.c{fill:#efcee1;}.d{fill:#2a5583;}.e{fill:#e52a33;}.f{fill:#e47c98;}.g{fill:#17a84b;}.h{fill:#fdbe01;}.i{fill:#46a7de;}.j{fill:#eec1a3;}.k{fill:#c1d5ea;}.l{fill:#f1cb34;}.m{fill:#f4d4cb;}.n{fill:#b6d6d0;}.o{fill:#8e4e9f;}.p{fill:#e6a67b;}.q{fill:#df3d75;}.r{fill:#fae285;}.s{fill:none;}</style></defs><g transform="translate(-960)"><g transform="translate(960)"><rect class="a" width="960" height="1080"/></g><g transform="translate(1863.699 31.213) rotate(90)"><g transform="translate(-18.783 -56.301)"><path class="b" d="M554.175,82.813a4.771,4.771,0,0,0-1.227-2.105,4.954,4.954,0,0,0-3.373-1.4h-1.147a4.6,4.6,0,0,0-4.359,2.932,3.586,3.586,0,0,0-.411,1.838l.17,1.267a4.771,4.771,0,0,0,1.227,2.105,4.954,4.954,0,0,0,3.373,1.4h1.147a4.6,4.6,0,0,0,4.359-2.932,3.585,3.585,0,0,0,.411-1.837Z" transform="translate(397.783 207.232)"/><path class="c" d="M668.094,183.56a38.2,38.2,0,0,0-27.628-8.957c-9.268.7-17.256,5.475-25.215,9.821-7.895,4.311-15.722,7.644-24.866,5.732-8.684-1.816-16.909-7.412-22.664-14.062-6.068-7.011-10.268-15.941-9.315-25.385.614-6.09-8.825-7.475-9.443-1.352-2.007,19.887,11.936,37.914,29.085,46.442,9.621,4.784,20.326,5.883,30.508,2.292,8.684-3.064,16.094-8.829,24.689-12.1a28.515,28.515,0,0,1,28.915,5.038C666.833,195.04,672.745,187.551,668.094,183.56Z" transform="translate(397.783 305.91)"/><path class="d" d="M500.322,53.417c3.747,2.116,7.565,4.111,11.467,5.927,3.6,1.677,7.4,3.547,11.491,3.115,8.613-.909,10.6-10.466,10.05-17.571a89.746,89.746,0,0,0-7.624-29.126c-2.1-4.732-8.642-2.743-9.142,1.368a158.152,158.152,0,0,0-16.7,16.256c-2.538,2.86-6.627,6.442-7.134,10.442C492.091,48.865,496.612,51.321,500.322,53.417Zm6.108-13.112c1.747-2.016,3.546-3.986,5.416-5.889q3.849-3.918,7.984-7.532a77.931,77.931,0,0,1,2.624,9.546c.921,4.488,2.383,10.1,1.1,14.648-.286,1.009-.732,1.877-1.48,1.943-2.146.191-4.963-1.7-6.828-2.57-2.616-1.216-5.205-2.5-7.741-3.88-1.2-.651-2.946-1.362-4.342-2.268.154-.231.3-.457.441-.63Q504.99,41.969,506.43,40.305Z" transform="translate(319.757 140.97)"/><path class="e" d="M593.022-26.978,569.654-12.849c-1.858,1.123-3.7,2.278-5.577,3.368a8.4,8.4,0,0,0-1.4.767c-.9-2.353-2.013-5.162-2.929-7.705a110.975,110.975,0,0,0-24.037-38.5c-1.861-1.971-5.637-1.713-7.556,0-2.185,1.951-1.865,4.769,0,6.745a102.8,102.8,0,0,1,14.329,19.286,91.766,91.766,0,0,1,5.327,10.773c1.439,3.484,2.387,7.107,3.8,10.59,1.4,3.442,3.712,6.92,7.879,8.065,5.148,1.416,9.351-1.4,13.39-3.845l25.532-15.437C604.077-22.165,598.736-30.433,593.022-26.978ZM562.754-8.528a.893.893,0,0,0,.181.026C563.24-8.483,563.157-7.591,562.754-8.528Z" transform="translate(397.783 56.301)"/><path class="f" d="M482.057-30.778c-.7-2.557-3.726-4.56-6.379-3.622-10.142,3.588-19.434,9.307-26.037,17.928a38.585,38.585,0,0,0-7.376,31.6c1.427,6.518,11.428,3.76,10-2.757C448.435-5.124,463.391-19.077,478.435-24.4A5.315,5.315,0,0,0,482.057-30.778Z" transform="translate(290.466 56.301)"/><path class="d" d="M521.911,277.458c-.341-2.63-3.056-5.035-5.814-4.474-10.542,2.142-20.54,6.512-28.278,14.131a38.589,38.589,0,0,0-11.7,30.264c.507,6.652,10.8,5.312,10.288-1.34-1.361-17.854,15.391-29.59,31.029-32.768A5.317,5.317,0,0,0,521.911,277.458Z" transform="translate(312.531 457.778)"/><path class="g" d="M620.732,208.344c-5.841-1.934-8.346,7.275-2.536,9.2,9.076,3,13.85,13.5,12.6,22.563-1.486,10.8-9.756,19.428-19,24.421-11.171,6.036-23.681,7.038-35.98,8.976-11.774,1.854-22.781,6.36-29.3,16.844a35.24,35.24,0,0,0-1.711,34.091c2.755,5.488,10.987.663,8.237-4.814-4.187-8.339-2.613-18.954,2.958-26.308,7.266-9.591,20.327-10.341,31.292-11.845,12.682-1.739,25.607-5.117,35.957-12.993,9.583-7.291,16.77-18.193,17.249-30.489C641.008,225.139,633.069,212.428,620.732,208.344Z" transform="translate(397.783 444.924)"/><path class="h" d="M513.185,227.976a5.281,5.281,0,0,0-.528-7.315,80.477,80.477,0,0,1-22.1-40.341,66.582,66.582,0,0,1,6.82-46.33c5.348-9.705,12.715-18.143,20.4-26.056,4.654-4.79-3.2-11.561-7.843-6.786-14.2,14.622-26.969,31.695-30.3,52.3-2.82,17.461.764,35.343,8.63,51.046a90.733,90.733,0,0,0,17.6,24.007C507.87,230.471,511.436,230,513.185,227.976Z" transform="translate(389.655 161.672)"/><path class="i" d="M668.094,183.56a38.2,38.2,0,0,0-27.628-8.957c-9.268.7-17.256,5.475-25.215,9.821-7.895,4.311-15.722,7.644-24.866,5.732-8.684-1.816-16.909-7.412-22.664-14.062-6.068-7.011-10.268-15.941-9.315-25.385.614-6.09-8.825-7.475-9.443-1.352-2.007,19.887,11.936,37.914,29.085,46.442,9.621,4.784,20.326,5.883,30.508,2.292,8.684-3.064,16.094-8.829,24.689-12.1a28.515,28.515,0,0,1,28.915,5.038C666.833,195.04,672.745,187.551,668.094,183.56Z" transform="translate(397.783 305.91)"/><path class="j" d="M317.639,162.606c-1.055-2.433-4.331-3.992-6.825-2.689-9.537,4.978-17.933,11.946-23.258,21.411a38.582,38.582,0,0,0-2.86,32.319c2.329,6.252,11.843,2.115,9.514-4.136-6.253-16.779,6.594-32.7,20.74-40.08A5.317,5.317,0,0,0,317.639,162.606Z" transform="translate(198.072 324.947)"/><path class="k" d="M212.874,163.284a70.608,70.608,0,0,0-18.183,17.347c-.266-.106-.526-.22-.8-.319-8.662-3.171-18.455-2.143-25.621,3.961-6.9,5.882-11.659,17.475-4.519,25.078,5.4,5.752,15.2,5.345,21.412,1.194,6.039-4.037,9.114-10.64,12.519-16.872.526.482,1.028.982,1.5,1.5,5.492,6.023,7.537,14.445,7.716,22.4.2,8.709-2.062,17.972-7.784,24.729-5.349,6.318-13.747,10.113-22.026,8.465-6.028-1.2-7.928,8.149-1.9,9.349a32.135,32.135,0,0,0,26.312-6.9c7.562-6.216,12.216-15.128,14.014-24.685,2.8-14.915-.741-33.129-12.624-43.035,5.446-7.222,12.68-13.7,20.812-17.461,4.456-2.062,9.737-3.547,14.583-1.964,3.421,1.117,7.016,3.869,7.607,7.628a4.895,4.895,0,0,0,5.082,4.434c2.4-.163,4.837-2.523,4.435-5.082-1.347-8.568-8.153-14.885-16.544-16.664C229.716,154.45,220.384,158.332,212.874,163.284Zm-31.609,38.223a9.1,9.1,0,0,1-6.833,2.624,8.521,8.521,0,0,1-2.789-.641,2.647,2.647,0,0,1-1.585-1.572c-1.045-2.815.587-6.282,2.4-8.435a15.7,15.7,0,0,1,8.316-5.115,15.957,15.957,0,0,1,8.739.456q-.9,1.6-1.772,3.224C185.935,195.4,184.1,198.893,181.265,201.507Z" transform="translate(139.466 355.897)"/><path class="h" d="M406.159,24.144c-1.131-4.477-2.509-8.889-4.08-13.231a213.775,213.775,0,0,0-11.691-26.144c-4.887-9.348-10.269-18.424-15.656-27.489-3.408-5.733-12.377-.522-8.956,5.235,8.688,14.617,17.55,29.337,23.98,45.125a127.971,127.971,0,0,1,7.653,24.82,14.42,14.42,0,0,1-1.845,10.95,65.475,65.475,0,0,1-7.66,9.264,152.122,152.122,0,0,1-21.567,19.312c-2.254,1.654-3.378,4.5-1.86,7.1,1.3,2.225,4.825,3.527,7.1,1.86a166.812,166.812,0,0,0,21.423-18.56c6.287-6.514,13.84-13.906,14.973-23.319C408.57,34.055,407.38,28.979,406.159,24.144Z" transform="translate(247.255 56.301)"/><path class="i" d="M335.571-33.736a32.68,32.68,0,0,0-29.355-2.207c-8.269,3.431-14.337,10.464-19.333,17.643-4.831,6.942-8.922,14.653-15.013,20.616a31.3,31.3,0,0,1-20.484,8.959c-8.552.408-17.435-2.151-23.755-8.083-2.041-1.916-5.1-2.4-7.323-.422-1.948,1.735-2.473,5.4-.422,7.323a43.812,43.812,0,0,0,49.6,6.755c8.031-4.231,13.852-11.263,18.875-18.651,4.745-6.98,8.906-14.713,15.316-20.352,7.284-6.408,17.675-7.988,26.179-2.92C335.586-21.664,341.312-30.316,335.571-33.736Z" transform="translate(182.349 56.301)"/><path class="f" d="M482.057-30.778c-.7-2.557-3.726-4.56-6.379-3.622-10.142,3.588-19.434,9.307-26.037,17.928a38.585,38.585,0,0,0-7.376,31.6c1.427,6.518,11.428,3.76,10-2.757C448.435-5.124,463.391-19.077,478.435-24.4A5.315,5.315,0,0,0,482.057-30.778Z" transform="translate(290.466 56.301)"/><path class="l" d="M459.593,43.242c-6.674,0-6.685,10.372,0,10.372S466.278,43.242,459.593,43.242Z" transform="translate(285.589 167.295)"/><path class="h" d="M161.124,12.081c-9.053-5.29-20.286-5.274-30.2-2.831a55.464,55.464,0,0,0-19.428,9.127,73.478,73.478,0,0,1-4.745-7.071c-5.862-9.979-8.239-21.834-3.771-32.815,1.056-2.595-1.147-5.7-3.622-6.379-2.968-.816-5.319,1.017-6.379,3.622-7.129,17.519-.127,35.179,10.848,49.331q-.791.818-1.552,1.665c-7.393,8.256-13.387,17.422-23.4,22.8A44.8,44.8,0,0,1,20.469,34.421c-3.607-5.59-12.589-.4-8.956,5.235C22.242,56.286,41.706,66.7,61.621,65.075A55.729,55.729,0,0,0,89.654,55.019c8.428-6.091,13.978-14.623,20.981-22.086,1.489,1.55,3.008,3.037,4.538,4.453,8.254,7.641,18.087,14.282,29.624,15.05,10.261.683,21.111-5.457,25.3-14.953C174.391,27.751,170.079,17.315,161.124,12.081Zm-7.36,28.136c-8.126,4.423-17.447.33-24.372-4.5a78.612,78.612,0,0,1-11.125-9.476,46.137,46.137,0,0,1,19.169-7.759c7.148-1.144,16.259-.587,21.563,4.984C164.521,29.265,159.857,36.9,153.764,40.217Z" transform="translate(18.783 56.301)"/><path class="m" d="M316.063,43.788a7.016,7.016,0,0,0-.976-.332,22.124,22.124,0,0,0-24.468.035,21.554,21.554,0,0,0-8.589,24.8,24.375,24.375,0,0,0,21.276,17.293c10.028.752,20.285-5.24,23.812-14.754C330.8,60.9,325.991,48.013,316.063,43.788Zm2.659,21.587c-.839,5.934-6.465,10.055-12.224,10.65-6.171.637-11.468-2.57-14.324-8-2.652-5.043-2.312-11.172,1.743-15.067,4.026-3.867,11.373-5.207,15.678-1.855a6.607,6.607,0,0,0,1.9,1.041A12.7,12.7,0,0,1,318.722,65.375Z" transform="translate(200.448 172.635)"/><path class="k" d="M154.926-39.922a4.76,4.76,0,0,0-1.226-2.1,4.956,4.956,0,0,0-3.373-1.4h-1.148a3.584,3.584,0,0,0-1.837.411,3.574,3.574,0,0,0-1.535.986,3.574,3.574,0,0,0-.986,1.535,3.586,3.586,0,0,0-.411,1.838l.17,1.268a4.768,4.768,0,0,0,1.227,2.1,4.953,4.953,0,0,0,3.372,1.4h1.148a3.588,3.588,0,0,0,1.838-.411,3.574,3.574,0,0,0,1.535-.986,3.568,3.568,0,0,0,.986-1.535,3.6,3.6,0,0,0,.411-1.837Z" transform="translate(116.082 56.301)"/><path class="b" d="M-5.825,82.813a4.771,4.771,0,0,0-1.227-2.105,4.954,4.954,0,0,0-3.373-1.4h-1.147a3.586,3.586,0,0,0-1.838.411,3.574,3.574,0,0,0-1.535.986,3.568,3.568,0,0,0-.986,1.535,3.586,3.586,0,0,0-.411,1.838l.17,1.267a4.771,4.771,0,0,0,1.227,2.105,4.954,4.954,0,0,0,3.373,1.4h1.147a3.586,3.586,0,0,0,1.838-.411,3.574,3.574,0,0,0,1.535-.986,3.574,3.574,0,0,0,.986-1.535,3.584,3.584,0,0,0,.411-1.837Z" transform="translate(18.783 207.232)"/><path class="n" d="M342.84,155.755c6.075,4.363,12.514,8.582,19.932,10.175,8.889,1.909,16.6-1.929,23.208-7.615a63.777,63.777,0,0,1,11.014-8.166,51.21,51.21,0,0,0,.981,14.373c2.088,9.04,9.1,16.72,19.014,15.472a20.073,20.073,0,0,0,16.676-14.345c2.249-8.473-2.113-17.423-8.761-22.646a26.114,26.114,0,0,0-16.643-5.4,110.221,110.221,0,0,1,5.07-18.643c3.139-8.483,7.692-17.242,15.68-22.081,5.749-3.483,13.969-4.758,19.851-.9a4.9,4.9,0,0,0,6.7-.818c1.489-1.9,1.346-5.277-.818-6.7-7.645-5.017-17.012-5.463-25.478-2.239-9.209,3.508-15.843,11.045-20.466,19.516-4.835,8.86-7.726,18.994-9.664,28.856-.3,1.514-.583,3.064-.848,4.635a40.133,40.133,0,0,0-12.727,6.911c-4.432,3.523-8.534,8.52-14.112,10.228-8.139,2.492-16.5-3.665-22.727-8.137C343.752,144.672,337.834,152.16,342.84,155.755Zm81.838,6.259a8.955,8.955,0,0,1-3.049,5.777c-3.9,3.346-9.065,4.224-12.331-.311-2.177-3.023-2.578-7.147-2.722-10.752a69.583,69.583,0,0,1,.367-9.59c6.071-.429,11.857,1.8,15.452,6.954A12,12,0,0,1,424.678,162.014Z" transform="translate(260.23 249.825)"/><path class="o" d="M55.2,93.279c-7.062-6.346-17.989-4.839-24.446,1.73-6.822,6.94-7.664,17.9-2.805,26.2,4.644,7.927,14.1,12.655,23.2,10.622a21.161,21.161,0,0,0,16.06-18.5C67.874,105.01,62.631,96.825,55.2,93.279Zm2.308,20.753a11.283,11.283,0,0,1-13.821,8.312c-6.7-1.952-10.977-9.64-8.785-16.338,1.331-4.066,6.088-7.968,10.414-7.362a4.269,4.269,0,0,0,2.909,2.346C54.054,102.154,58.859,107.906,57.508,114.032Z" transform="translate(18.783 231.316)"/><path class="c" d="M108.094,183.56A38.2,38.2,0,0,0,80.466,174.6c-9.268.7-17.256,5.475-25.215,9.821-7.9,4.311-15.722,7.644-24.866,5.732-8.684-1.816-16.909-7.412-22.664-14.062-6.068-7.011-10.268-15.941-9.315-25.385.614-6.09-8.825-7.475-9.443-1.352C-13.044,169.244.9,187.271,18.048,195.8c9.621,4.784,20.326,5.883,30.508,2.292,8.684-3.064,16.094-8.829,24.689-12.1a28.515,28.515,0,0,1,28.915,5.038C106.833,195.04,112.745,187.551,108.094,183.56Z" transform="translate(18.783 305.91)"/><path class="p" d="M138.573,123.439c-2.576-3.447-5.265-6.812-8.1-10.047-2.622-2.989-5.339-6.23-9.259-7.485-8.248-2.641-13.924,5.3-16.282,12.026a89.72,89.72,0,0,0-4.768,29.728c.013,5.176,6.8,6,8.917,2.434a158.049,158.049,0,0,0,21.838-8.141c3.476-1.593,8.662-3.223,10.739-6.679C144.269,130.924,141.123,126.853,138.573,123.439ZM127.7,132.974c-2.412,1.141-4.853,2.218-7.331,3.206q-5.1,2.033-10.344,3.673a77.885,77.885,0,0,1,1.449-9.794c.966-4.478,1.891-10.2,4.9-13.846.668-.807,1.426-1.422,2.137-1.182,2.041.691,3.856,3.561,5.212,5.106,1.9,2.168,3.754,4.389,5.519,6.672.835,1.08,2.147,2.435,3.059,3.827-.234.149-.459.3-.658.4Q129.685,132.033,127.7,132.974Z" transform="translate(95.38 252.547)"/><path class="e" d="M33.022-26.978,9.654-12.849c-1.858,1.123-3.7,2.278-5.577,3.368a8.406,8.406,0,0,0-1.4.767c-.9-2.353-2.013-5.162-2.929-7.705a110.975,110.975,0,0,0-24.037-38.5c-1.861-1.971-5.637-1.713-7.556,0-2.185,1.951-1.865,4.769,0,6.745A102.794,102.794,0,0,1-17.514-28.887a91.761,91.761,0,0,1,5.327,10.773c1.439,3.484,2.387,7.107,3.8,10.59C-6.988-4.082-4.674-.6-.507.541,4.641,1.957,8.844-.862,12.883-3.3L38.415-18.741C44.077-22.165,38.736-30.433,33.022-26.978ZM2.754-8.528a.893.893,0,0,0,.181.026C3.24-8.483,3.157-7.591,2.754-8.528Z" transform="translate(166.127 243.284)"/><path class="b" d="M280.543,122.71q-28.348-10.131-55.889-22.349c-8.412-3.746-17.145-7.29-25.058-12.033-5.271-3.16-11.274-7.675-12.11-14.224-.637-5,1.942-9.925,3.99-14.306q3.774-8.076,7.552-16.15a4.9,4.9,0,0,0-1.711-6.525c-2.067-1.209-5.429-.633-6.525,1.711q-3.578,7.65-7.156,15.3c-2.252,4.817-4.681,9.668-5.453,14.982-1.343,9.249,3.159,17.351,10.249,23.022,7.257,5.806,15.914,9.423,24.3,13.255q15.159,6.927,30.592,13.235,17.186,7.04,34.681,13.281c2.426.867,5.221-.979,5.867-3.331A4.865,4.865,0,0,0,280.543,122.71Z" transform="translate(152.921 184.04)"/><path class="q" d="M184.116,317.071c-2.185-11.307-13.04-19.441-24.28-19.723a4.676,4.676,0,0,0-3.589,1.356,24.437,24.437,0,0,0-20.059,15.971c-3.428,9.791.361,21.307,8.565,27.471,7.991,6,20.013,6.723,28.439,1.132A25.806,25.806,0,0,0,184.116,317.071Zm-14.653,16.016c-4.262,4.066-11.122,4.684-16.324,2.118a14.494,14.494,0,0,1-7.72-14.842c.943-7.013,7.61-11.732,14.432-11.409a4.748,4.748,0,0,0,3.052-.816,15.232,15.232,0,0,1,10.42,8.824C175.559,322.481,173.685,329.059,169.463,333.087Z" transform="translate(116.383 556.94)"/><path class="r" d="M289.53,386.583a208.783,208.783,0,0,1-33.348,5.647c-3.918.33-10,1.709-13.517-.716-2.821-1.945-3.679-6.116-4.359-9.245-4.83-22.2-7.408-45.141-9.263-67.76q-1.6-19.509-2.023-39.087c-.149-6.664-10.521-6.688-10.372,0a666.179,666.179,0,0,0,6.016,75.332c1.608,11.771,3.118,23.8,5.889,35.361,1.109,4.626,3.015,9.507,6.7,12.705,4.25,3.693,9.632,4.455,15.083,4.193a215.158,215.158,0,0,0,41.956-6.429C298.756,394.958,296.015,384.953,289.53,386.583Z" transform="translate(170.676 556.94)"/><path class="q" d="M414.633,334.658c-5.021-17.8-15.757-34.4-32.394-43.256-9.142-4.865-19.646-7.365-29.99-6.1-2.78.341-5.186,2.14-5.186,5.186,0,2.538,2.387,5.529,5.186,5.186,16.052-1.968,31.588,6.014,41.233,18.683,10.512,13.81,14.347,31.467,14.677,48.514.22,11.366-.957,22.7-2.445,33.952-.368,2.781,2.647,5.186,5.186,5.186,3.107,0,4.816-2.4,5.185-5.186C418.811,376.222,420.35,354.922,414.633,334.658Z" transform="translate(247.031 556.94)"/><path class="o" d="M365.918,343.272c-4.609-7.416-14.483-11.606-22.942-8.8a20.425,20.425,0,0,0-12.965,24.4,5.487,5.487,0,0,0,.657,1.507,19.641,19.641,0,0,0,7.17,9c7.522,5.167,18.029,4.619,24.6-1.829C368.727,361.372,370.667,350.914,365.918,343.272Zm-17.544,19.275a10.521,10.521,0,0,1-7.019-3.8,8.573,8.573,0,0,1-1.319-2.523c-.009-.036-.014-.071-.024-.108a9.083,9.083,0,0,1-.306-2.54,3.6,3.6,0,0,1,.8-1.978,5.866,5.866,0,0,0,1.438-4.31,8.459,8.459,0,0,1,5.753-3.3c5.019-.542,10.544,3.62,10.52,8.957S353.671,363.113,348.374,362.547Z" transform="translate(225.828 556.94)"/><path class="p" d="M293.831,303.35c-6.929,1.477-14.232-2.088-18.494-7.523-4.751-6.06-5.963-14.49-4.872-21.942,1.294-8.84,6.142-17.128,5.45-26.269-.619-8.184-4.8-15.971-12.971-18.61-6.366-2.056-9.093,7.955-2.757,10,6.637,2.143,5.691,11.884,4.307,17.186-2.392,9.163-5.558,17.674-4.474,27.341,1,8.91,4.722,17.588,11.768,23.371,7,5.742,15.873,8.348,24.8,6.445C303.113,311.961,300.351,301.961,293.831,303.35Z" transform="translate(185.431 437.719)"/><path class="j" d="M317.639,162.606c-1.055-2.433-4.331-3.992-6.825-2.689-9.537,4.978-17.933,11.946-23.258,21.411a38.582,38.582,0,0,0-2.86,32.319c2.329,6.252,11.843,2.115,9.514-4.136-6.253-16.779,6.594-32.7,20.74-40.08A5.317,5.317,0,0,0,317.639,162.606Z" transform="translate(198.072 324.947)"/><path class="g" d="M60.732,208.344c-5.841-1.934-8.346,7.275-2.536,9.2,9.076,3,13.85,13.5,12.6,22.563-1.486,10.8-9.756,19.428-19,24.421-11.171,6.036-23.681,7.038-35.98,8.976-11.774,1.854-22.781,6.36-29.3,16.844a35.24,35.24,0,0,0-1.711,34.091c2.755,5.488,10.987.663,8.237-4.814-4.187-8.339-2.613-18.954,2.958-26.308,7.266-9.591,20.327-10.341,31.292-11.845,12.682-1.739,25.607-5.117,35.957-12.993,9.583-7.291,16.77-18.193,17.249-30.489C81.008,225.139,73.069,212.428,60.732,208.344Z" transform="translate(18.783 444.924)"/><path class="o" d="M459.9,257.542a247.254,247.254,0,0,0-16.736-51.635c-1.051-2.352-4.474-2.911-6.526-1.711-2.421,1.416-2.766,4.165-1.711,6.525a236.2,236.2,0,0,1,14.844,44.988c.72,3.229,2.092,7.116,1.614,10.47-.389,2.726-3.4,3.689-5.578,4.746q-10.826,5.253-22.023,9.672c-2.394.947-4.066,3.192-3.331,5.868.627,2.279,3.458,4.283,5.867,3.331,8.5-3.361,16.918-6.983,25.114-11.029,3.81-1.881,7.186-4.321,8.7-8.456S460.746,261.7,459.9,257.542Z" transform="translate(278.307 405.205)"/><path class="f" d="M373.629,252.164c.492-2.451.2-5.113.148-7.6q-.09-4.453-.31-8.9a307.794,307.794,0,0,0-4.366-38.475,4.71,4.71,0,0,0-5.86-3.778c-2.156-1.323-4.564-.538-6.256,1.2q-12.457,12.774-24.518,25.923-6.105,6.663-12.1,13.421c-1.955,2.2-3.845,4.809-2.62,7.9,1.244,3.139,4.254,3.922,7.175,4.816l34.616,10.6c2.756.844,5.527,2.006,8.436,1.338C371.145,257.879,373.013,255.228,373.629,252.164Zm-12.357-4.3-12.3-3.766-12.3-3.765-6.376-1.953c-.268-.082-.58-.164-.916-.248q.825-.925,1.651-1.851,2.163-2.418,4.34-4.822,4.821-5.325,9.708-10.589,7.7-8.291,15.562-16.421a299.415,299.415,0,0,1,3.706,42.233c.011.708.04,1.423.03,2.134Z" transform="translate(224.356 373.32)"/><path class="p" d="M129.315,223.953c-6.138,0-6.148,9.539,0,9.539S135.463,223.953,129.315,223.953Z" transform="translate(105.115 368.216)"/><path class="o" d="M111.789,296.922c-7.45-12.683-26.836-12.614-39.331-10.218-2.531.485-3.975,3.525-3.331,5.867a4.869,4.869,0,0,0,5.867,3.331,45.636,45.636,0,0,1,18.766.09c3.783.892,8.651,2.656,10.246,6.592,1.01,2.493.394,5.291-.264,7.784-.906,3.429-2.03,6.809-3.063,10.2q-3.193,10.485-6.386,20.968c-1.793,5.886,7.412,8.4,9.2,2.536l7.5-24.614C113.218,312.136,116.011,304.109,111.789,296.922Z" transform="translate(18.783 556.94)"/><path class="k" d="M212.874,163.284a70.608,70.608,0,0,0-18.183,17.347c-.266-.106-.526-.22-.8-.319-8.662-3.171-18.455-2.143-25.621,3.961-6.9,5.882-11.659,17.475-4.519,25.078,5.4,5.752,15.2,5.345,21.412,1.194,6.039-4.037,9.114-10.64,12.519-16.872.526.482,1.028.982,1.5,1.5,5.492,6.023,7.537,14.445,7.716,22.4.2,8.709-2.062,17.972-7.784,24.729-5.349,6.318-13.747,10.113-22.026,8.465-6.028-1.2-7.928,8.149-1.9,9.349a32.135,32.135,0,0,0,26.312-6.9c7.562-6.216,12.216-15.128,14.014-24.685,2.8-14.915-.741-33.129-12.624-43.035,5.446-7.222,12.68-13.7,20.812-17.461,4.456-2.062,9.737-3.547,14.583-1.964,3.421,1.117,7.016,3.869,7.607,7.628a4.895,4.895,0,0,0,5.082,4.434c2.4-.163,4.837-2.523,4.435-5.082-1.347-8.568-8.153-14.885-16.544-16.664C229.716,154.45,220.384,158.332,212.874,163.284Zm-31.609,38.223a9.1,9.1,0,0,1-6.833,2.624,8.521,8.521,0,0,1-2.789-.641,2.647,2.647,0,0,1-1.585-1.572c-1.045-2.815.587-6.282,2.4-8.435a15.7,15.7,0,0,1,8.316-5.115,15.957,15.957,0,0,1,8.739.456q-.9,1.6-1.772,3.224C185.935,195.4,184.1,198.893,181.265,201.507Z" transform="translate(139.466 355.897)"/><path class="n" d="M342.84,155.755c6.075,4.363,12.514,8.582,19.932,10.175,8.889,1.909,16.6-1.929,23.208-7.615a63.777,63.777,0,0,1,11.014-8.166,51.21,51.21,0,0,0,.981,14.373c2.088,9.04,9.1,16.72,19.014,15.472a20.073,20.073,0,0,0,16.676-14.345c2.249-8.473-2.113-17.423-8.761-22.646a26.114,26.114,0,0,0-16.643-5.4,110.221,110.221,0,0,1,5.07-18.643c3.139-8.483,7.692-17.242,15.68-22.081,5.749-3.483,13.969-4.758,19.851-.9a4.9,4.9,0,0,0,6.7-.818c1.489-1.9,1.346-5.277-.818-6.7-7.645-5.017-17.012-5.463-25.478-2.239-9.209,3.508-15.843,11.045-20.466,19.516-4.835,8.86-7.726,18.994-9.664,28.856-.3,1.514-.583,3.064-.848,4.635a40.133,40.133,0,0,0-12.727,6.911c-4.432,3.523-8.534,8.52-14.112,10.228-8.139,2.492-16.5-3.665-22.727-8.137C343.752,144.672,337.834,152.16,342.84,155.755Zm81.838,6.259a8.955,8.955,0,0,1-3.049,5.777c-3.9,3.346-9.065,4.224-12.331-.311-2.177-3.023-2.578-7.147-2.722-10.752a69.583,69.583,0,0,1,.367-9.59c6.071-.429,11.857,1.8,15.452,6.954A12,12,0,0,1,424.678,162.014Z" transform="translate(260.23 249.825)"/><path class="q" d="M108.094,183.56A38.2,38.2,0,0,0,80.466,174.6c-9.268.7-17.256,5.475-25.215,9.821-7.9,4.311-15.722,7.644-24.866,5.732-8.684-1.816-16.909-7.412-22.664-14.062-6.068-7.011-10.268-15.941-9.315-25.385.614-6.09-8.825-7.475-9.443-1.352C-13.044,169.244.9,187.271,18.048,195.8c9.621,4.784,20.326,5.883,30.508,2.292,8.684-3.064,16.094-8.829,24.689-12.1a28.515,28.515,0,0,1,28.915,5.038C106.833,195.04,112.745,187.551,108.094,183.56Z" transform="translate(18.783 305.91)"/></g><rect class="s" width="315" height="560" transform="translate(560 0) rotate(90)"/></g></g></svg>